<svg height="512pt" viewBox="0 0 512.00076 512" width="512pt" xmlns="http://www.w3.org/2000/svg"><path d="m502.003906 256c0 135.863281-110.140625 246.003906-246.003906 246.003906s-246-110.140625-246-246.003906c0-135.859375 110.136719-246 246-246s246.003906 110.140625 246.003906 246zm0 0" fill="#ff9d6c"/><path d="m108 216h296v80h-296zm0 0" fill="#fff"/><path d="m404 306h-296c-5.523438 0-10-4.476562-10-10v-80c0-5.519531 4.476562-10 10-10h296c5.523438 0 10 4.480469 10 10v80c0 5.523438-4.476562 10-10 10zm-286-20h276v-60h-276zm0 0"/><path d="m255.9375 512c-6.527344 0-13.070312-.25-19.621094-.75-60.835937-4.664062-118.132812-31.027344-161.335937-74.230469-48.351563-48.351562-74.980469-112.636719-74.980469-181.019531 0-68.378906 26.628906-132.667969 74.980469-181.019531 48.351562-48.351563 112.640625-74.980469 181.019531-74.980469 68.382812 0 132.667969 26.628906 181.023438 74.980469 43.199218 43.203125 69.5625 100.5 74.226562 161.335937 4.613281 60.175782-12.144531 120.160156-47.183594 168.898438-3.222656 4.484375-9.472656 5.507812-13.957031 2.28125-4.484375-3.222656-5.507813-9.472656-2.28125-13.957032 67.726563-94.207031 57.234375-222.234374-24.949219-304.417968-44.574218-44.574219-103.839844-69.121094-166.878906-69.121094s-122.300781 24.546875-166.875 69.125c-92.019531 92.015625-92.019531 241.738281 0 333.753906 82.179688 82.183594 210.207031 92.675782 304.414062 24.949219 4.484376-3.226563 10.734376-2.203125 13.957032 2.28125 3.226562 4.484375 2.203125 10.730469-2.28125 13.957031-43.4375 31.226563-95.804688 47.933594-149.277344 47.933594zm0 0"/><path d="m429.953125 439.953125c-2.640625 0-5.210937-1.070313-7.070313-2.929687-1.859374-1.859376-2.929687-4.441407-2.929687-7.070313 0-2.632813 1.066406-5.210937 2.929687-7.070313 1.859376-1.859374 4.4375-2.929687 7.070313-2.929687 2.628906 0 5.207031 1.070313 7.066406 2.929687 1.859375 1.859376 2.933594 4.4375 2.933594 7.070313 0 2.628906-1.070313 5.210937-2.933594 7.070313-1.859375 1.859374-4.4375 2.929687-7.066406 2.929687zm0 0"/></svg>